<?xml version="1.0" encoding="UTF-8"?>
<!DOCTYPE svg PUBLIC "-//W3C//DTD SVG 1.1//EN" "http://www.w3.org/Graphics/SVG/1.1/DTD/svg11.dtd">
<svg xmlns="http://www.w3.org/2000/svg" version="1.1" width="1650px" height="1650px" style="shape-rendering:geometricPrecision; text-rendering:geometricPrecision; image-rendering:optimizeQuality; fill-rule:evenodd; clip-rule:evenodd" xmlns:xlink="http://www.w3.org/1999/xlink">
<g><path style="opacity:0.969" fill="#254367" d="M 805.5,34.5 C 825.569,35.5006 845.569,36.6672 865.5,38C 866.833,39.3333 866.833,40.6667 865.5,42C 862.471,42.539 859.471,43.2057 856.5,44C 854.777,44.7751 853.777,46.1084 853.5,48C 857.755,58.0121 862.922,67.5121 869,76.5C 876.145,69.6932 882.145,62.0266 887,53.5C 887.667,51.8333 887.667,50.1667 887,48.5C 884.131,45.7321 880.798,43.7321 877,42.5C 876.28,40.8876 876.446,39.3876 877.5,38C 892.501,38.8004 907.501,39.8004 922.5,41C 923.833,42.3333 923.833,43.6667 922.5,45C 913.327,45.5882 905.327,48.9215 898.5,55C 890.167,64.6667 881.833,74.3333 873.5,84C 882.104,100.71 891.604,116.877 902,132.5C 907.285,141.056 914.785,146.556 924.5,149C 925.38,150.356 925.714,151.856 925.5,153.5C 904.523,152.002 883.523,150.835 862.5,150C 861.167,148.667 861.167,147.333 862.5,146C 865.936,145.308 869.27,144.308 872.5,143C 873.804,142.196 874.471,141.029 874.5,139.5C 869.909,126.984 863.742,115.317 856,104.5C 846.612,113.881 838.779,124.381 832.5,136C 833.439,137.944 834.773,139.611 836.5,141C 840.031,142.606 843.698,143.772 847.5,144.5C 848.747,146.006 848.747,147.506 847.5,149C 831.823,148.277 816.156,147.444 800.5,146.5C 799.253,144.994 799.253,143.494 800.5,142C 807.043,141.497 813.043,139.497 818.5,136C 830.264,123.575 841.264,110.575 851.5,97C 844.149,82.3268 835.982,68.1602 827,54.5C 821.86,46.514 814.693,41.3474 805.5,39C 804.272,37.5098 804.272,36.0098 805.5,34.5 Z"/></g>
<g><path style="opacity:0.986" fill="#254367" d="M 986.5,53.5 C 999.208,52.7187 1011.21,55.2187 1022.5,61C 1027.44,64.0484 1032.27,67.2151 1037,70.5C 1039.11,69.392 1040.95,67.892 1042.5,66C 1044.47,65.5045 1046.47,65.3379 1048.5,65.5C 1047.1,77.8891 1045.27,90.2224 1043,102.5C 1041,105.167 1039,105.167 1037,102.5C 1034.76,90.5829 1029.92,79.9162 1022.5,70.5C 1005.78,59.2517 991.277,61.5851 979,77.5C 968.186,95.5663 964.853,114.9 969,135.5C 978.505,160.892 995.338,167.392 1019.5,155C 1023.48,151.344 1027.81,148.178 1032.5,145.5C 1034.29,145.962 1035.29,147.129 1035.5,149C 1034.63,151.552 1033.3,153.886 1031.5,156C 1008.02,174.317 983.685,175.317 958.5,159C 938.261,141.113 932.428,119.279 941,93.5C 948.934,71.7207 964.101,58.3873 986.5,53.5 Z"/></g>
<g><path style="opacity:0.917" fill="#254367" d="M 495.5,104.5 C 498.325,104.081 500.491,105.081 502,107.5C 506,113.5 510,119.5 514,125.5C 516.812,130.231 515.645,132.398 510.5,132C 500.554,123.68 489.221,120.68 476.5,123C 463.644,127.462 459.478,135.962 464,148.5C 467.965,152.545 472.798,154.545 478.5,154.5C 489.277,152.711 500.11,151.378 511,150.5C 533.697,150.862 546.197,162.362 548.5,185C 546.176,205.325 535.176,218.325 515.5,224C 508.291,225.863 500.957,226.863 493.5,227C 492.712,230.076 492.212,233.242 492,236.5C 489.46,237.876 487.46,237.21 486,234.5C 481.252,226.001 476.252,217.668 471,209.5C 469.41,207.35 468.743,205.017 469,202.5C 470.726,201.424 472.559,201.257 474.5,202C 487.008,215.284 502.008,219.617 519.5,215C 530.741,208.699 534.241,199.532 530,187.5C 526.514,182.503 521.681,179.669 515.5,179C 503.841,179.581 492.174,180.414 480.5,181.5C 459.746,181.412 448.079,171.078 445.5,150.5C 447.527,134.293 456.193,123.126 471.5,117C 478.628,114.441 485.962,112.774 493.5,112C 494.22,109.509 494.887,107.009 495.5,104.5 Z"/></g>
<g><path style="opacity:0.974" fill="#254367" d="M 770.5,37.5 C 774.482,45.9287 777.816,54.762 780.5,64C 780.046,65.6217 779.046,66.7884 777.5,67.5C 772.176,63.3416 767.176,58.8416 762.5,54C 754.224,48.8286 745.224,47.1619 735.5,49C 730.809,49.7719 726.142,50.6052 721.5,51.5C 721.742,65.4851 723.075,79.3185 725.5,93C 732.938,93.6316 739.438,91.465 745,86.5C 747.321,82.3707 749.154,78.0374 750.5,73.5C 752.045,72.5481 753.712,72.2148 755.5,72.5C 755.669,87.0271 757.335,101.36 760.5,115.5C 759.307,117.384 757.641,117.884 755.5,117C 750.38,103.767 740.713,98.2672 726.5,100.5C 727.095,114.259 728.595,127.926 731,141.5C 732.48,144.663 734.98,146.496 738.5,147C 755.97,148.401 770.803,142.901 783,130.5C 784.833,126.833 786.667,123.167 788.5,119.5C 790.045,118.548 791.712,118.215 793.5,118.5C 793.255,128.786 792.255,138.953 790.5,149C 758.655,152.774 726.822,156.607 695,160.5C 690.843,160.825 689.676,159.158 691.5,155.5C 696.831,155.088 700.997,152.755 704,148.5C 703.316,119.343 700.65,90.3428 696,61.5C 693.684,54.8026 688.851,51.9693 681.5,53C 680.446,51.6124 680.28,50.1124 681,48.5C 710.941,44.9447 740.774,41.278 770.5,37.5 Z"/></g>
<g><path style="opacity:0.957" fill="#254367" d="M 593.5,67.5 C 595.722,67.178 597.556,67.8446 599,69.5C 602.667,76.8333 606.333,84.1667 610,91.5C 610.495,93.4727 610.662,95.4727 610.5,97.5C 608.801,97.6602 607.134,97.4935 605.5,97C 594.106,84.3053 580.439,80.6387 564.5,86C 554.336,92.9922 553.002,101.326 560.5,111C 562.717,112.275 565.051,113.275 567.5,114C 578.833,114.333 590.167,114.667 601.5,115C 628.671,118.866 639.505,134.366 634,161.5C 624.773,180.834 609.273,190.167 587.5,189.5C 584.308,189.379 581.141,189.046 578,188.5C 577.167,188.833 576.333,189.167 575.5,189.5C 574.833,192.167 574.167,194.833 573.5,197.5C 571.994,198.747 570.494,198.747 569,197.5C 563.035,185.46 558.202,173.294 554.5,161C 556.167,160.333 557.833,160.333 559.5,161C 567.283,170.458 576.95,177.125 588.5,181C 602.736,183.137 612.569,177.637 618,164.5C 618.492,150.653 611.659,143.486 597.5,143C 585.797,142.832 574.13,142.166 562.5,141C 538.868,131.561 532.701,115.394 544,92.5C 550.197,84.976 558.031,79.8094 567.5,77C 575.436,75.508 583.436,74.508 591.5,74C 592.23,71.846 592.897,69.6794 593.5,67.5 Z"/></g>
<g><path style="opacity:0.993" fill="#254367" d="M 1076.5,75.5 C 1104.47,86.8141 1132.47,98.1475 1160.5,109.5C 1160.83,110.333 1161.17,111.167 1161.5,112C 1159.64,120.81 1157.97,129.644 1156.5,138.5C 1154.53,138.739 1152.7,138.406 1151,137.5C 1147.47,114.016 1133.97,101.349 1110.5,99.5C 1104.16,111.485 1099,123.818 1095,136.5C 1106.85,144.331 1117.02,142.498 1125.5,131C 1127.7,130.288 1129.36,130.955 1130.5,133C 1123.88,146.032 1118.55,159.532 1114.5,173.5C 1112.83,173.5 1111.17,173.5 1109.5,173.5C 1109.36,168.991 1109.2,164.324 1109,159.5C 1105.63,151.798 1099.96,146.465 1092,143.5C 1086.8,153.902 1082.13,164.569 1078,175.5C 1075.08,181.703 1076.25,186.87 1081.5,191C 1097.75,200.891 1114.42,201.891 1131.5,194C 1133.97,190.929 1136.97,189.763 1140.5,190.5C 1141.31,192.952 1140.81,195.285 1139,197.5C 1134.33,204.167 1129.67,210.833 1125,217.5C 1094.44,204.551 1063.77,191.885 1033,179.5C 1032.28,177.888 1032.45,176.388 1033.5,175C 1037.71,176.072 1042.04,176.406 1046.5,176C 1048.62,174.878 1050.46,173.378 1052,171.5C 1063.49,146.177 1074.16,120.51 1084,94.5C 1084.67,92.1667 1084.67,89.8333 1084,87.5C 1080.89,84.3754 1077.72,81.3754 1074.5,78.5C 1075.19,77.4822 1075.86,76.4822 1076.5,75.5 Z"/></g>
<g><path style="opacity:0.972" fill="#254367" d="M 1192.5,123.5 C 1208.54,133.506 1224.87,143.172 1241.5,152.5C 1242.45,154.045 1242.79,155.712 1242.5,157.5C 1237.74,156.912 1233.07,155.912 1228.5,154.5C 1225.52,154.318 1223.02,155.318 1221,157.5C 1204.62,182.226 1189.46,207.726 1175.5,234C 1175.99,235.982 1176.99,237.649 1178.5,239C 1186.9,245.08 1196.24,248.913 1206.5,250.5C 1217.35,248.939 1227.35,245.106 1236.5,239C 1238.92,238.085 1240.25,238.918 1240.5,241.5C 1240.28,242.938 1239.78,244.271 1239,245.5C 1232.21,253.963 1225.04,262.13 1217.5,270C 1197.19,257.992 1176.85,245.659 1156.5,233C 1149.66,229.078 1142.66,225.412 1135.5,222C 1133.47,220.604 1133.14,218.938 1134.5,217C 1138.97,216.872 1143.3,217.705 1147.5,219.5C 1150.7,218.463 1153.54,216.797 1156,214.5C 1170.09,193.335 1183.42,171.668 1196,149.5C 1200.51,141.19 1198.84,134.523 1191,129.5C 1190.26,127.126 1190.76,125.126 1192.5,123.5 Z"/></g>
<g><path style="opacity:0.957" fill="#254367" d="M 1293.5,188.5 C 1296.56,188.144 1299.23,188.977 1301.5,191C 1312.92,201.753 1324.92,211.753 1337.5,221C 1339.21,222.378 1340.55,224.045 1341.5,226C 1340.77,227.397 1339.61,228.231 1338,228.5C 1333.9,226.286 1329.57,224.62 1325,223.5C 1322.46,223.384 1320.29,224.217 1318.5,226C 1303.98,242.221 1289.81,258.721 1276,275.5C 1271.28,281.221 1266.95,287.221 1263,293.5C 1263.01,297.559 1264.85,300.726 1268.5,303C 1276.35,310.007 1285.52,314.174 1296,315.5C 1304.44,314.354 1312.6,312.187 1320.5,309C 1325.62,307.453 1327.12,308.953 1325,313.5C 1323.17,315.333 1321.33,317.167 1319.5,319C 1312.32,324.847 1305.16,330.68 1298,336.5C 1279.84,321.013 1261.68,305.513 1243.5,290C 1237.78,285.279 1231.78,280.946 1225.5,277C 1222.69,274.464 1222.85,272.297 1226,270.5C 1229.89,272.443 1233.89,274.109 1238,275.5C 1240.25,274.863 1242.41,274.03 1244.5,273C 1262.79,253.715 1279.96,233.548 1296,212.5C 1301.12,205.532 1300.45,199.199 1294,193.5C 1293.51,191.866 1293.34,190.199 1293.5,188.5 Z"/></g>
<g><path style="opacity:0.094" fill="#fdf1be" d="M 825.5,220.5 C 824.833,220.5 824.167,220.5 823.5,220.5C 824.623,214.034 825.29,214.034 825.5,220.5 Z"/></g>
<g><path style="opacity:0.4" fill="#ffe77a" d="M 823.5,220.5 C 824.167,220.5 824.833,220.5 825.5,220.5C 825.5,221.5 825.5,222.5 825.5,223.5C 824.833,224.833 824.167,226.167 823.5,227.5C 823.5,225.167 823.5,222.833 823.5,220.5 Z"/></g>
<g><path style="opacity:0.997" fill="#ffdd0e" d="M 825.5,223.5 C 830.82,301.037 838.32,378.37 848,455.5C 854.651,508.768 866.651,560.768 884,611.5C 911.54,687.373 963.373,738.873 1039.5,766C 1076.93,779.22 1115.26,788.886 1154.5,795C 1209.24,803.786 1264.24,810.453 1319.5,815C 1357.48,818.255 1395.48,821.255 1433.5,824C 1279.17,824.5 1124.83,824.667 970.5,824.5C 965.262,766.11 936.262,724.277 883.5,699C 823.84,676.268 770.174,685.934 722.5,728C 696.085,754.672 681.419,786.838 678.5,824.5C 524.166,824.667 369.833,824.5 215.5,824C 302.831,818.584 389.831,809.917 476.5,798C 529.946,790.848 581.613,777.181 631.5,757C 690.488,731.192 732.655,688.692 758,629.5C 769.145,603.232 777.978,576.232 784.5,548.5C 786.04,546.162 786.706,543.495 786.5,540.5C 794.721,500.123 801.221,459.456 806,418.5C 813.066,354.936 818.9,291.269 823.5,227.5C 824.167,226.167 824.833,224.833 825.5,223.5 Z"/></g>
<g><path style="opacity:0.994" fill="#254367" d="M 404.5,155.5 C 405.552,155.351 406.552,155.517 407.5,156C 413.667,161.833 419.833,167.667 426,173.5C 426.934,178.083 425.1,179.583 420.5,178C 408.776,172.158 397.109,172.158 385.5,178C 379.549,181.95 373.882,186.283 368.5,191C 375.546,202.93 383.213,214.43 391.5,225.5C 404.789,219.167 409.289,208.833 405,194.5C 406.938,193.14 408.604,193.473 410,195.5C 416.346,206.862 423.679,217.529 432,227.5C 433.08,230.237 432.246,231.904 429.5,232.5C 426.128,231.299 423.128,229.466 420.5,227C 411.279,224.07 402.945,225.737 395.5,232C 403.221,243.942 411.555,255.442 420.5,266.5C 424.207,267.806 427.874,267.64 431.5,266C 440.61,260.223 448.443,253.057 455,244.5C 459.26,236.265 460.926,227.599 460,218.5C 460.739,217.426 461.739,216.759 463,216.5C 464.819,218.126 466.152,220.126 467,222.5C 469.833,229.667 472.667,236.833 475.5,244C 470.044,248.567 464.378,252.9 458.5,257C 436.45,271.018 414.783,285.518 393.5,300.5C 390.754,299.904 389.92,298.237 391,295.5C 398.064,292.042 400.064,286.708 397,279.5C 382.162,256.488 366.828,233.821 351,211.5C 348.293,207.965 344.793,206.798 340.5,208C 338.086,209.885 335.419,210.552 332.5,210C 331.167,208.333 331.167,206.667 332.5,205C 357.088,189.218 381.088,172.718 404.5,155.5 Z"/></g>
<g><path style="opacity:0.974" fill="#254367" d="M 308.5,222.5 C 311.261,221.915 312.927,222.915 313.5,225.5C 310.57,229.531 308.57,234.031 307.5,239C 308.276,241.995 309.443,244.828 311,247.5C 333.9,269.398 355.733,292.231 376.5,316C 375.833,317.333 374.833,318.333 373.5,319C 370.667,319.167 367.833,319.333 365,319.5C 332.472,317.727 299.972,315.894 267.5,314C 281.529,328.363 295.862,342.363 310.5,356C 317.853,359.775 324.52,358.775 330.5,353C 334.667,351.833 336.167,353.333 335,357.5C 323.636,367.034 312.803,377.034 302.5,387.5C 300.734,387.566 299.734,386.732 299.5,385C 301.651,381.51 303.818,378.01 306,374.5C 306.841,370.88 306.174,367.546 304,364.5C 288.838,347.005 272.672,330.505 255.5,315C 245.23,308.354 234.73,307.854 224,313.5C 220.298,313.094 219.632,311.427 222,308.5C 228.864,301.302 236.03,294.468 243.5,288C 276.493,289.579 309.493,290.912 342.5,292C 333.087,281.59 323.42,271.59 313.5,262C 310.057,258.771 306.39,255.771 302.5,253C 295.037,250.275 288.37,251.608 282.5,257C 281.216,257.684 280.049,257.517 279,256.5C 278.333,254.833 278.333,253.167 279,251.5C 290.029,242.97 299.863,233.303 308.5,222.5 Z"/></g>
<g><path style="opacity:0.994" fill="#254367" d="M 1387.5,269.5 C 1389.83,269.247 1391.83,269.914 1393.5,271.5C 1411.91,294.083 1430.91,316.25 1450.5,338C 1445.08,345.514 1439.41,352.847 1433.5,360C 1432.21,360.49 1430.87,360.657 1429.5,360.5C 1430,353.486 1430.67,346.486 1431.5,339.5C 1431.54,335.744 1431.04,332.078 1430,328.5C 1425.41,318.97 1418.75,311.303 1410,305.5C 1398.76,313.239 1388.26,321.906 1378.5,331.5C 1382.07,336.234 1386.4,340.067 1391.5,343C 1397.56,343.845 1403.39,343.012 1409,340.5C 1410.62,340.954 1411.79,341.954 1412.5,343.5C 1401.41,352.415 1390.75,361.915 1380.5,372C 1378.08,372.986 1376.41,372.319 1375.5,370C 1377.45,366.595 1379.29,363.095 1381,359.5C 1382.08,350.827 1379.58,343.327 1373.5,337C 1362.59,344.217 1352.42,352.717 1343,362.5C 1339.76,366.762 1339.76,371.096 1343,375.5C 1350.08,385.588 1359.25,393.088 1370.5,398C 1378.69,399.368 1386.86,399.868 1395,399.5C 1395.68,401.976 1394.85,403.809 1392.5,405C 1384.94,408.698 1377.44,412.531 1370,416.5C 1353.29,399.449 1337.62,381.449 1323,362.5C 1317.2,355.85 1311.2,349.517 1305,343.5C 1304.01,341.075 1304.68,339.409 1307,338.5C 1310.72,341.053 1314.55,343.386 1318.5,345.5C 1321.69,344.825 1324.69,343.658 1327.5,342C 1346.5,325.667 1365.5,309.333 1384.5,293C 1387.24,289.933 1389.57,286.599 1391.5,283C 1390.36,279.065 1388.7,275.398 1386.5,272C 1386.74,271.098 1387.08,270.265 1387.5,269.5 Z"/></g>
<g><path style="opacity:0.957" fill="#254367" d="M 208.5,327.5 C 210.948,327.01 212.615,327.843 213.5,330C 211.737,333.355 210.404,336.855 209.5,340.5C 209.622,342.791 210.455,344.791 212,346.5C 233.888,366.732 257.722,384.232 283.5,399C 288.289,399.241 291.955,397.241 294.5,393C 296.112,392.28 297.612,392.446 299,393.5C 299.257,396.017 298.59,398.35 297,400.5C 285.52,412.293 275.353,425.127 266.5,439C 264.08,439.915 262.747,439.082 262.5,436.5C 263.937,433.462 264.937,430.296 265.5,427C 265.458,425.033 264.958,423.199 264,421.5C 241.532,401.026 217.365,382.859 191.5,367C 189.711,366.48 188.044,366.813 186.5,368C 184.597,370.405 182.264,372.239 179.5,373.5C 178.098,373.135 177.098,372.301 176.5,371C 177.278,368.61 178.445,366.443 180,364.5C 190.481,352.861 199.981,340.528 208.5,327.5 Z"/></g>
<g><path style="opacity:0.973" fill="#254367" d="M 1470.5,363.5 C 1472.17,363.751 1473.67,364.418 1475,365.5C 1480.04,374.415 1485.21,383.249 1490.5,392C 1480.73,422.411 1471.73,453.078 1463.5,484C 1463.83,484.5 1464.17,485 1464.5,485.5C 1480.67,476.485 1496.17,466.485 1511,455.5C 1514.36,448.78 1514.2,442.113 1510.5,435.5C 1512.16,431.919 1514.33,431.586 1517,434.5C 1523.78,446.937 1530.95,459.104 1538.5,471C 1538.27,472.732 1537.27,473.566 1535.5,473.5C 1531.66,470.507 1527.66,467.673 1523.5,465C 1520.07,464.299 1516.74,464.632 1513.5,466C 1487.83,482.17 1461.83,497.836 1435.5,513C 1430.33,514.5 1428.5,512.667 1430,507.5C 1438.89,475.155 1448.39,442.989 1458.5,411C 1457.42,409.457 1456.09,409.457 1454.5,411C 1440.17,420 1425.83,429 1411.5,438C 1402.86,444.641 1401.19,452.808 1406.5,462.5C 1405.62,465.517 1403.79,466.184 1401,464.5C 1395.29,451.465 1387.95,439.465 1379,428.5C 1377.83,424.333 1379.33,422.833 1383.5,424C 1385.89,428.053 1389.22,431.053 1393.5,433C 1395.5,433.667 1397.5,433.667 1399.5,433C 1403.95,431.274 1408.29,429.274 1412.5,427C 1426.5,418.333 1440.5,409.667 1454.5,401C 1463.89,395.216 1469.22,386.883 1470.5,376C 1470.45,372.863 1469.79,369.863 1468.5,367C 1468.98,365.697 1469.64,364.531 1470.5,363.5 Z"/></g>
<g><path style="opacity:0.548" fill="#415577" d="M 1179.5,450.5 C 1112.83,450.5 1046.17,450.5 979.5,450.5C 979.5,453.5 979.5,456.5 979.5,459.5C 981.415,459.216 983.081,459.549 984.5,460.5C 982.5,460.5 980.5,460.5 978.5,460.5C 978.5,456.833 978.5,453.167 978.5,449.5C 1045.67,449.168 1112.67,449.501 1179.5,450.5 Z"/></g>
<g><path style="opacity:1" fill="#264467" d="M 1179.5,450.5 C 1186.38,468.29 1193.38,486.124 1200.5,504C 1195.83,504.667 1191.17,504.667 1186.5,504C 1154.86,467.565 1115.53,454.565 1068.5,465C 1066.33,467.167 1064.17,469.333 1062,471.5C 1061.08,474.101 1060.41,476.768 1060,479.5C 1059.5,506.498 1059.33,533.498 1059.5,560.5C 1074.84,560.667 1090.17,560.5 1105.5,560C 1127.09,555.758 1137.43,542.758 1136.5,521C 1140.75,520.8 1144.92,520.3 1149,519.5C 1150.49,549.686 1150.99,580.019 1150.5,610.5C 1146.5,610.5 1142.5,610.5 1138.5,610.5C 1138.14,598.282 1133.8,587.782 1125.5,579C 1119.77,575.089 1113.44,572.756 1106.5,572C 1090.84,571.5 1075.17,571.333 1059.5,571.5C 1059.33,600.502 1059.5,629.502 1060,658.5C 1060.95,669.447 1066.78,675.947 1077.5,678C 1111.06,684.362 1141.06,677.029 1167.5,656C 1176.86,646.97 1185.86,637.637 1194.5,628C 1199.09,627.803 1203.59,627.303 1208,626.5C 1208.5,627 1209,627.5 1209.5,628C 1202.01,648.31 1195.01,668.81 1188.5,689.5C 1118.5,689.5 1048.5,689.5 978.5,689.5C 978.5,686.167 978.5,682.833 978.5,679.5C 989.393,679.815 999.726,677.648 1009.5,673C 1014.03,668.092 1016.19,662.259 1016,655.5C 1016.96,595.48 1016.63,535.48 1015,475.5C 1013.6,469.1 1009.77,464.934 1003.5,463C 997.228,461.652 990.895,460.818 984.5,460.5C 983.081,459.549 981.415,459.216 979.5,459.5C 979.5,456.5 979.5,453.5 979.5,450.5C 1046.17,450.5 1112.83,450.5 1179.5,450.5 Z M 1138.5,461.5 C 1146.68,460.179 1155.01,460.179 1163.5,461.5C 1167.02,468.19 1170.18,474.856 1173,481.5C 1162.64,472.902 1151.14,466.236 1138.5,461.5 Z M 1014.5,678.5 C 1018.56,673.927 1021.06,668.594 1022,662.5C 1022.67,600.833 1022.67,539.167 1022,477.5C 1021.68,471.52 1019.18,466.687 1014.5,463C 1024.8,462.288 1030.63,467.121 1032,477.5C 1032.67,537.833 1032.67,598.167 1032,658.5C 1032.11,667.454 1028.28,673.954 1020.5,678C 1018.53,678.495 1016.53,678.662 1014.5,678.5 Z M 1125.5,560.5 C 1128.77,557.732 1131.94,554.732 1135,551.5C 1135.33,560.988 1135.33,570.321 1135,579.5C 1130.38,572.27 1123.88,567.603 1115.5,565.5C 1118.83,563.834 1122.16,562.168 1125.5,560.5 Z M 1179.5,654.5 C 1176.69,662.921 1173.69,671.255 1170.5,679.5C 1161.49,679.666 1152.49,679.5 1143.5,679C 1156.75,672.567 1168.75,664.401 1179.5,654.5 Z"/></g>
<g><path style="opacity:0.97" fill="#254367" d="M 155.5,396.5 C 165.568,399.196 175.235,403.03 184.5,408C 185.833,409.667 185.833,411.333 184.5,413C 169.344,411.162 156.511,415.662 146,426.5C 140.174,436.481 141.674,444.981 150.5,452C 155.278,453.917 159.945,453.583 164.5,451C 173.684,443.906 182.684,436.573 191.5,429C 210.856,417.139 227.689,419.972 242,437.5C 251.163,456.415 248.83,473.748 235,489.5C 229.957,494.212 224.623,498.545 219,502.5C 219.831,505.177 220.998,507.843 222.5,510.5C 222.392,511.442 222.059,512.275 221.5,513C 218.351,513.274 215.351,512.608 212.5,511C 204.059,506.228 195.392,501.894 186.5,498C 184.475,496.806 184.141,495.306 185.5,493.5C 190.977,492.496 196.477,492.496 202,493.5C 218.962,494.204 230.629,486.871 237,471.5C 238.795,458.645 233.461,450.645 221,447.5C 215.308,448.43 210.141,450.597 205.5,454C 196.21,462.311 186.21,469.644 175.5,476C 159.97,481.044 147.136,477.211 137,464.5C 130.322,449.999 131.322,435.999 140,422.5C 144.649,416.684 149.816,411.351 155.5,406.5C 155.013,403.257 155.013,399.924 155.5,396.5 Z"/></g>
<g><path style="opacity:0.917" fill="#254367" d="M 107.5,478.5 C 109.167,478.5 110.833,478.5 112.5,478.5C 110.687,490.041 115.353,497.541 126.5,501C 145.452,508.759 164.118,517.092 182.5,526C 194.698,535.586 199.198,548.086 196,563.5C 193.015,580.973 185.182,595.806 172.5,608C 162.509,613.222 152.176,613.888 141.5,610C 122.394,601.743 103.06,594.076 83.5,587C 80.1667,586.333 76.8333,586.333 73.5,587C 71.2567,589.488 69.2567,592.154 67.5,595C 65.0507,595.775 63.384,594.942 62.5,592.5C 69.5515,577.178 75.7182,561.512 81,545.5C 82.9969,540.854 85.1636,540.521 87.5,544.5C 85.2426,550.667 86.5759,555.834 91.5,560C 112.59,572.29 135.09,581.124 159,586.5C 170.363,585.154 178.363,579.154 183,568.5C 190.9,552.252 187.067,539.752 171.5,531C 154.82,522.107 137.486,514.774 119.5,509C 110.101,505.575 103.101,508.242 98.5,517C 96.8876,517.72 95.3876,517.554 94,516.5C 93.6753,514.447 94.0087,512.447 95,510.5C 100.448,500.322 104.614,489.656 107.5,478.5 Z"/></g>
<g><path style="opacity:0.997" fill="#254367" d="M 1508.5,512.5 C 1529.95,509.815 1548.12,516.149 1563,531.5C 1573.53,546.102 1577.36,562.268 1574.5,580C 1577.64,581.716 1580.97,583.049 1584.5,584C 1585.55,585.388 1585.72,586.888 1585,588.5C 1576.52,592.663 1568.02,596.83 1559.5,601C 1556.08,602.904 1552.41,603.737 1548.5,603.5C 1548.34,601.801 1548.51,600.134 1549,598.5C 1559.25,589.507 1565.75,578.34 1568.5,565C 1565.88,546.549 1555.21,537.049 1536.5,536.5C 1512.56,538.381 1493.39,548.714 1479,567.5C 1470.01,585.525 1473.85,600.025 1490.5,611C 1496.54,614.123 1502.87,616.457 1509.5,618C 1512.17,620 1512.17,622 1509.5,624C 1481.58,621.42 1465.08,606.253 1460,578.5C 1456.54,550.59 1467.37,530.424 1492.5,518C 1497.84,515.841 1503.18,514.008 1508.5,512.5 Z"/></g>
<g><path style="opacity:0.686" fill="#ffe676" d="M 786.5,540.5 C 786.706,543.495 786.04,546.162 784.5,548.5C 784.565,545.572 785.232,542.905 786.5,540.5 Z"/></g>
<g><path style="opacity:1" fill="#274468" d="M 441.5,449.5 C 488.501,449.333 535.501,449.5 582.5,450C 604.917,450.798 624.084,458.964 640,474.5C 653.843,491.223 657.177,509.89 650,530.5C 642.717,544.111 631.883,553.944 617.5,560C 609.938,562.743 602.271,565.077 594.5,567C 615.532,569.6 633.365,578.433 648,593.5C 663.743,615.739 664.409,638.406 650,661.5C 635.001,678.248 616.167,687.415 593.5,689C 542.834,689.5 492.168,689.667 441.5,689.5C 441.5,686.167 441.5,682.833 441.5,679.5C 450.062,679.872 458.395,678.705 466.5,676C 471.144,673.359 474.311,669.525 476,664.5C 477.136,632.692 477.636,600.859 477.5,569C 477.64,537.471 477.14,505.971 476,474.5C 472.987,465.836 466.82,461.336 457.5,461C 452.177,460.501 446.844,460.334 441.5,460.5C 441.5,456.833 441.5,453.167 441.5,449.5 Z M 592.5,678.5 C 610.482,666.372 619.149,649.205 618.5,627C 619.624,602.563 609.624,584.563 588.5,573C 607.478,575.968 619.645,586.802 625,605.5C 629.79,624.603 627.79,642.936 619,660.5C 612.443,669.897 603.61,675.897 592.5,678.5 Z M 520.5,571.5 C 538.209,571.086 555.875,571.586 573.5,573C 593.41,577.91 605.576,590.41 610,610.5C 613.461,627.548 611.461,643.881 604,659.5C 592.382,674.276 577.048,680.943 558,679.5C 547.719,679.842 537.886,678.009 528.5,674C 523.519,670.068 521.019,664.901 521,658.5C 520.5,629.502 520.333,600.502 520.5,571.5 Z M 593.5,557.5 C 607.585,545.792 614.252,530.625 613.5,512C 613.928,495.508 608.928,481.008 598.5,468.5C 595.978,466.144 593.312,463.977 590.5,462C 605.35,465.508 615.183,474.675 620,489.5C 625.244,506.238 624.244,522.571 617,538.5C 611.655,548.021 603.822,554.354 593.5,557.5 Z M 540.5,460.5 C 552.214,460.139 563.881,460.639 575.5,462C 591.649,467.489 601.482,478.655 605,495.5C 609.215,513.882 606.215,530.882 596,546.5C 589.151,554.79 580.317,559.29 569.5,560C 553.17,560.5 536.837,560.667 520.5,560.5C 520.051,532.13 520.551,503.796 522,475.5C 525.219,466.814 531.386,461.814 540.5,460.5 Z M 474.5,461.5 C 484.256,459.483 490.423,463.483 493,473.5C 493.667,536.833 493.667,600.167 493,663.5C 491.032,675.138 484.199,680.304 472.5,679C 480.878,674.419 484.711,667.252 484,657.5C 484.667,599.167 484.667,540.833 484,482.5C 484.165,476.457 482.832,470.791 480,465.5C 478.549,463.536 476.716,462.203 474.5,461.5 Z"/></g>
<g><path style="opacity:0.981" fill="#254367" d="M 1589.5,616.5 C 1591.17,616.5 1592.83,616.5 1594.5,616.5C 1600.11,645.899 1606.11,675.232 1612.5,704.5C 1612.41,706.425 1611.41,707.592 1609.5,708C 1602.38,710.725 1595.38,713.725 1588.5,717C 1587.22,717.684 1586.05,717.517 1585,716.5C 1584.33,714.833 1584.33,713.167 1585,711.5C 1596.67,701.819 1601.34,689.486 1599,674.5C 1597.59,668.787 1596.09,663.12 1594.5,657.5C 1580.77,659.447 1567.1,661.78 1553.5,664.5C 1553.52,679.19 1560.86,687.19 1575.5,688.5C 1576.45,690.045 1576.79,691.712 1576.5,693.5C 1561.72,695.691 1547.05,698.191 1532.5,701C 1531.48,699.951 1531.32,698.784 1532,697.5C 1545.68,690.836 1549.84,680.502 1544.5,666.5C 1531.78,669.014 1519.11,671.847 1506.5,675C 1502.73,677.192 1500.73,680.526 1500.5,685C 1501.7,700.307 1507.7,713.307 1518.5,724C 1523.12,727.099 1528.12,729.432 1533.5,731C 1534.83,732.333 1534.83,733.667 1533.5,735C 1532,735.5 1530.5,736 1529,736.5C 1520.51,735.875 1512.01,735.208 1503.5,734.5C 1496.4,701.896 1489.73,669.23 1483.5,636.5C 1485.47,636.261 1487.3,636.594 1489,637.5C 1490.73,648.208 1496.9,652.042 1507.5,649C 1532.64,644.304 1557.64,638.971 1582.5,633C 1584.59,632.208 1586.42,631.041 1588,629.5C 1589.29,625.27 1589.79,620.936 1589.5,616.5 Z"/></g>
<g><path style="opacity:1" fill="#254367" d="M 66.5,627.5 C 81.8301,625.034 91.9968,631.034 97,645.5C 98.5119,650.393 99.5119,655.393 100,660.5C 103.279,652.557 108.112,645.723 114.5,640C 133.656,629.58 148.156,634.08 158,653.5C 160.685,664.103 160.685,674.77 158,685.5C 153.225,702.265 149.558,719.265 147,736.5C 145.604,738.527 143.938,738.86 142,737.5C 141.667,733.5 141.333,729.5 141,725.5C 140.07,723.448 138.57,721.948 136.5,721C 107.838,713.068 78.8378,707.068 49.5,703C 47.1523,703.346 45.3189,704.513 44,706.5C 43.0229,709.102 41.8563,711.602 40.5,714C 39.2068,714.49 37.8734,714.657 36.5,714.5C 36.3354,711.482 36.502,708.482 37,705.5C 40.5753,686.135 44.242,666.801 48,647.5C 51.3175,638.022 57.4842,631.355 66.5,627.5 Z M 121.5,659.5 C 131.551,659.015 140.051,662.348 147,669.5C 151.486,677.688 151.653,686.022 147.5,694.5C 144.554,695.655 141.554,695.821 138.5,695C 125.748,692.478 113.082,689.645 100.5,686.5C 100.607,671.886 107.607,662.886 121.5,659.5 Z M 62.5,651.5 C 86.3839,650.045 96.7172,661.045 93.5,684.5C 79.2784,682.522 65.2784,679.522 51.5,675.5C 48.2667,664.159 51.9334,656.159 62.5,651.5 Z"/></g>
<g><path style="opacity:1" fill="#254367" d="M 849.5,815.5 C 850.753,823.78 851.42,832.113 851.5,840.5C 849.562,854.81 844.728,868.143 837,880.5C 833.833,885 830,888.833 825.5,892C 820.405,894.875 815.405,897.708 810.5,900.5C 809.351,900.209 808.684,899.376 808.5,898C 807.714,894.542 807.38,891.042 807.5,887.5C 808.791,887.737 809.791,887.404 810.5,886.5C 820.15,876.225 824.484,863.891 823.5,849.5C 823.593,841.003 822.593,832.67 820.5,824.5C 819.987,809.759 812.987,798.926 799.5,792C 783.169,786.999 768.669,790.165 756,801.5C 752.28,821.3 752.947,840.967 758,860.5C 761.924,874.079 769.924,884.412 782,891.5C 782.399,891.272 782.565,890.938 782.5,890.5C 784.413,893.321 785.413,896.654 785.5,900.5C 785.48,901.726 785.147,902.726 784.5,903.5C 761.224,899.731 744.724,887.064 735,865.5C 719.245,824.442 723.578,785.775 748,749.5C 772.99,719.43 805.156,703.763 844.5,702.5C 844.833,704.5 845.167,706.5 845.5,708.5C 801.266,716.23 772.933,741.73 760.5,785C 760.833,785.5 761.167,786 761.5,786.5C 778.191,775.552 796.191,772.718 815.5,778C 824.354,781.185 831.854,786.352 838,793.5C 842.678,800.527 846.511,807.86 849.5,815.5 Z M 820.5,824.5 C 793.927,838.293 781.261,860.293 782.5,890.5C 782.565,890.938 782.399,891.272 782,891.5C 769.924,884.412 761.924,874.079 758,860.5C 752.947,840.967 752.28,821.3 756,801.5C 768.669,790.165 783.169,786.999 799.5,792C 812.987,798.926 819.987,809.759 820.5,824.5 Z"/></g>
<g><path style="opacity:0.967" fill="#254367" d="M 1569.5,807.5 C 1593.82,806.654 1604.99,818.321 1603,842.5C 1595.75,860.871 1582.58,867.038 1563.5,861C 1548.18,851.433 1544.01,838.266 1551,821.5C 1555.37,814.275 1561.54,809.608 1569.5,807.5 Z"/></g>
<g><path style="opacity:0.985" fill="#254367" d="M 71.5,806.5 C 93.6247,807.123 104.125,818.456 103,840.5C 96.1255,860.363 82.6255,866.863 62.5,860C 46.2741,848.831 43.1075,834.665 53,817.5C 57.8701,811.425 64.0368,807.759 71.5,806.5 Z"/></g>
<g><path style="opacity:0.164" fill="#b8c3d9" d="M 922.5,815.5 C 923.493,823.65 923.826,831.983 923.5,840.5C 905.83,840.333 888.164,840.5 870.5,841C 871.416,841.278 872.082,841.778 872.5,842.5C 870.654,842.778 869.32,842.111 868.5,840.5C 886.488,839.5 904.488,839.167 922.5,839.5C 922.5,831.5 922.5,823.5 922.5,815.5 Z"/></g>
<g><path style="opacity:1" fill="#254367" d="M 825.5,1449.5 C 824.833,1448.5 824.167,1447.5 823.5,1446.5C 818.199,1352.68 808.365,1259.35 794,1166.5C 787.951,1129.3 778.618,1092.97 766,1057.5C 747.742,1003.93 715.242,961.433 668.5,930C 629.851,907.334 588.517,891.334 544.5,882C 473.163,867.333 401.163,857.333 328.5,852C 290.855,848.724 253.189,845.724 215.5,843C 369.833,842.5 524.166,842.333 678.5,842.5C 684.602,901.934 714.602,944.1 768.5,969C 826.085,990.014 878.085,980.681 924.5,941C 952.631,914.233 967.965,881.4 970.5,842.5C 1124.83,842.333 1279.17,842.5 1433.5,843C 1363.36,847.831 1293.36,854.164 1223.5,862C 1169.28,867.845 1115.94,878.178 1063.5,893C 1021.94,904.941 984.605,924.608 951.5,952C 919.053,983.368 895.553,1020.54 881,1063.5C 869.799,1097.5 861.132,1132.16 855,1167.5C 840.875,1261.04 831.041,1355.04 825.5,1449.5 Z"/></g>
<g><path style="opacity:1" fill="#9eafcd" d="M 849.5,815.5 C 873.833,815.5 898.167,815.5 922.5,815.5C 922.5,823.5 922.5,831.5 922.5,839.5C 904.488,839.167 886.488,839.5 868.5,840.5C 869.32,842.111 870.654,842.778 872.5,842.5C 892.071,854.946 904.237,872.613 909,895.5C 910.442,919.44 901.942,938.94 883.5,954C 840.94,974.98 809.773,963.814 790,920.5C 787.66,914.981 785.827,909.314 784.5,903.5C 785.147,902.726 785.48,901.726 785.5,900.5C 785.413,896.654 784.413,893.321 782.5,890.5C 781.261,860.293 793.927,838.293 820.5,824.5C 822.593,832.67 823.593,841.003 823.5,849.5C 812.573,859.617 808.24,871.95 810.5,886.5C 809.791,887.404 808.791,887.737 807.5,887.5C 807.38,891.042 807.714,894.542 808.5,898C 808.684,899.376 809.351,900.209 810.5,900.5C 812.486,920.669 821.486,936.836 837.5,949C 854.233,955.644 867.067,951.144 876,935.5C 890.132,899.496 883.299,867.996 855.5,841C 854.207,840.51 852.873,840.343 851.5,840.5C 851.42,832.113 850.753,823.78 849.5,815.5 Z M 851.5,840.5 C 852.873,840.343 854.207,840.51 855.5,841C 883.299,867.996 890.132,899.496 876,935.5C 867.067,951.144 854.233,955.644 837.5,949C 821.486,936.836 812.486,920.669 810.5,900.5C 815.405,897.708 820.405,894.875 825.5,892C 830,888.833 833.833,885 837,880.5C 844.728,868.143 849.562,854.81 851.5,840.5 Z"/></g>
<g><path style="opacity:1" fill="#f3f3f5" d="M 823.5,849.5 C 824.484,863.891 820.15,876.225 810.5,886.5C 808.24,871.95 812.573,859.617 823.5,849.5 Z"/></g>
<g><path style="opacity:0.949" fill="#254367" d="M 146.5,932.5 C 148.451,932.227 149.951,932.893 151,934.5C 155.541,954.04 159.375,973.707 162.5,993.5C 161.967,1010.37 153.3,1019.37 136.5,1020.5C 124.495,1019.75 116.328,1013.75 112,1002.5C 108.496,993.811 106.329,984.811 105.5,975.5C 93.1967,977.127 81.1967,979.96 69.5,984C 68.2986,984.903 67.4652,986.069 67,987.5C 66.7852,990.856 66.7852,994.189 67,997.5C 65.9505,998.517 64.7839,998.684 63.5,998C 60.1704,982.852 57.0037,967.685 54,952.5C 55.0495,951.483 56.2161,951.316 57.5,952C 58.7378,957.405 62.0711,960.572 67.5,961.5C 88.2024,957.526 108.869,953.36 129.5,949C 134.881,948.33 139.881,946.663 144.5,944C 145.358,942.43 146.025,940.763 146.5,939C 145.227,936.784 145.227,934.617 146.5,932.5 Z M 148.5,965.5 C 149.376,965.369 150.043,965.702 150.5,966.5C 158.024,988.144 150.358,997.978 127.5,996C 116.582,992.568 111.249,985.068 111.5,973.5C 124.058,971.324 136.392,968.657 148.5,965.5 Z"/></g>
<g><path style="opacity:0.905" fill="#254367" d="M 1549.5,955.5 C 1550.82,955.33 1551.99,955.663 1553,956.5C 1552.98,960.764 1553.82,964.764 1555.5,968.5C 1563.93,971.731 1572.43,974.731 1581,977.5C 1589.92,1001.07 1587.58,1023.4 1574,1044.5C 1554.39,1064.76 1532.22,1067.92 1507.5,1054C 1488.61,1041.04 1481.11,1023.21 1485,1000.5C 1487.77,987.957 1493.44,976.957 1502,967.5C 1501.05,964.642 1500.21,961.642 1499.5,958.5C 1509.57,958.963 1519.57,960.129 1529.5,962C 1530.99,964.022 1530.66,965.688 1528.5,967C 1514.91,969.699 1504.08,976.532 1496,987.5C 1488.88,1005.48 1493.72,1019.31 1510.5,1029C 1526.71,1038.22 1543.71,1040.22 1561.5,1035C 1577.48,1027.87 1582.65,1016.03 1577,999.5C 1575.83,998.333 1574.67,997.167 1573.5,996C 1565.74,992.676 1557.74,991.51 1549.5,992.5C 1547.03,995.472 1545.2,998.806 1544,1002.5C 1542.64,1003.38 1541.14,1003.71 1539.5,1003.5C 1542.45,987.423 1545.78,971.423 1549.5,955.5 Z"/></g>
<g><path style="opacity:0.993" fill="#254367" d="M 162.5,1014.5 C 165.238,1013.96 167.072,1014.96 168,1017.5C 173.389,1032.61 179.056,1047.61 185,1062.5C 188.743,1072.81 188.076,1082.81 183,1092.5C 172.864,1103.03 161.697,1104.2 149.5,1096C 145.182,1092.69 142.015,1088.52 140,1083.5C 140.982,1094.24 137.149,1102.74 128.5,1109C 120.082,1112.75 113.582,1118.59 109,1126.5C 108.501,1129.02 108.668,1131.52 109.5,1134C 108.352,1138.39 106.518,1138.56 104,1134.5C 101.535,1126.11 98.8684,1117.77 96,1109.5C 95.3333,1107.83 95.3333,1106.17 96,1104.5C 97.8333,1102.67 99.6667,1100.83 101.5,1099C 112.418,1094.07 122.252,1087.57 131,1079.5C 133.074,1074.43 132.908,1069.43 130.5,1064.5C 129.833,1064.17 129.167,1063.83 128.5,1063.5C 118.468,1066.9 108.468,1070.4 98.5,1074C 96.3911,1075.14 94.5578,1076.64 93,1078.5C 92.6432,1082.51 92.8099,1086.51 93.5,1090.5C 90.7615,1091.04 88.9282,1090.04 88,1087.5C 84.6546,1075.13 80.3213,1063.13 75,1051.5C 74.3333,1049.83 74.3333,1048.17 75,1046.5C 76.0495,1045.48 77.2161,1045.32 78.5,1046C 80.1028,1050.44 83.1028,1053.27 87.5,1054.5C 107.328,1048.5 126.995,1042 146.5,1035C 151.978,1033.07 157.145,1030.57 162,1027.5C 162.875,1026.13 163.375,1024.63 163.5,1023C 162.784,1020.21 162.451,1017.37 162.5,1014.5 Z M 169.5,1048.5 C 170.822,1048.33 171.989,1048.66 173,1049.5C 180.315,1064.7 175.815,1074.54 159.5,1079C 151.757,1080.42 145.59,1077.92 141,1071.5C 138.769,1068.21 136.936,1064.71 135.5,1061C 147.047,1057.1 158.381,1052.93 169.5,1048.5 Z"/></g>
<g><path style="opacity:1" fill="#264468" d="M 1089.5,968.5 C 1099.51,968.334 1109.51,968.5 1119.5,969C 1132.68,971.235 1145.68,974.235 1158.5,978C 1170.07,980.752 1180.07,978.085 1188.5,970C 1193.49,969.501 1198.49,969.334 1203.5,969.5C 1203.5,994.833 1203.5,1020.17 1203.5,1045.5C 1199.82,1045.67 1196.15,1045.5 1192.5,1045C 1182.96,1023.47 1168.96,1005.47 1150.5,991C 1122.66,973.801 1095.32,974.468 1068.5,993C 1051.67,1008.2 1041.17,1027.03 1037,1049.5C 1028.03,1088.16 1032.36,1125.16 1050,1160.5C 1074.39,1198.41 1108.22,1210.58 1151.5,1197C 1165,1191.42 1177,1183.59 1187.5,1173.5C 1193.23,1167.77 1198.57,1161.77 1203.5,1155.5C 1207.2,1157.01 1210.53,1159.01 1213.5,1161.5C 1187.95,1198.78 1152.28,1217.45 1106.5,1217.5C 1051.03,1216.7 1012.2,1191.03 990,1140.5C 975.92,1099.3 979.92,1059.97 1002,1022.5C 1023.19,991.651 1052.36,973.651 1089.5,968.5 Z M 1180.5,984.5 C 1181.74,992.989 1182.24,1001.66 1182,1010.5C 1175.78,1001.61 1168.28,994.112 1159.5,988C 1164.5,987.667 1169.5,987.333 1174.5,987C 1176.72,986.434 1178.72,985.6 1180.5,984.5 Z M 1061.5,982.5 C 1005.04,1021.38 986.872,1073.71 1007,1139.5C 1023.44,1173.6 1049.6,1196.77 1085.5,1209C 1034.94,1199.44 1003.44,1169.61 991,1119.5C 982.804,1075.44 993.97,1037.28 1024.5,1005C 1035.56,995.469 1047.89,987.969 1061.5,982.5 Z"/></g>
<g><path style="opacity:0.987" fill="#254367" d="M 1474.5,1046.5 C 1476.14,1046.29 1477.64,1046.62 1479,1047.5C 1478.57,1051.45 1478.57,1055.45 1479,1059.5C 1480.12,1061.62 1481.62,1063.46 1483.5,1065C 1508.95,1075.56 1534.28,1086.39 1559.5,1097.5C 1560.85,1099.61 1560.52,1101.44 1558.5,1103C 1530.44,1113.1 1502.11,1122.43 1473.5,1131C 1490.23,1139.02 1507.4,1145.85 1525,1151.5C 1530.97,1150.2 1535.14,1146.7 1537.5,1141C 1538.79,1140.51 1540.13,1140.34 1541.5,1140.5C 1541.58,1143.27 1541.08,1145.94 1540,1148.5C 1535.06,1158 1530.89,1167.83 1527.5,1178C 1526.21,1178.49 1524.87,1178.66 1523.5,1178.5C 1524.22,1173.51 1524.39,1168.51 1524,1163.5C 1522.83,1162.33 1521.67,1161.17 1520.5,1160C 1501.64,1150.91 1482.31,1142.91 1462.5,1136C 1449.16,1134.49 1440.16,1139.82 1435.5,1152C 1435.8,1154.92 1437.13,1157.26 1439.5,1159C 1461.31,1172.82 1484.14,1184.65 1508,1194.5C 1511.65,1193.74 1514.15,1191.57 1515.5,1188C 1520.06,1187.62 1521.23,1189.45 1519,1193.5C 1511.29,1204.92 1504.62,1216.92 1499,1229.5C 1496.52,1231.06 1495.02,1230.4 1494.5,1227.5C 1495.5,1224.2 1495.66,1220.87 1495,1217.5C 1490.4,1212.9 1485.23,1209.06 1479.5,1206C 1462.6,1196.72 1445.6,1187.72 1428.5,1179C 1426.18,1178.16 1423.85,1177.83 1421.5,1178C 1419.32,1180.35 1416.98,1182.52 1414.5,1184.5C 1413.17,1183.83 1412.17,1182.83 1411.5,1181.5C 1419.35,1169.81 1426.18,1157.48 1432,1144.5C 1433,1143.5 1434,1142.5 1435,1141.5C 1438.5,1133.65 1442,1125.82 1445.5,1118C 1471.96,1109.4 1498.29,1100.4 1524.5,1091C 1509.54,1083.96 1494.21,1077.79 1478.5,1072.5C 1472.28,1073.88 1467.61,1077.38 1464.5,1083C 1462.39,1083.85 1461.06,1083.19 1460.5,1081C 1466.05,1069.87 1470.71,1058.37 1474.5,1046.5 Z"/></g>
<g><path style="opacity:0.93" fill="#254367" d="M 169.5,1114.5 C 199.317,1114.51 217.817,1128.84 225,1157.5C 226.637,1192.04 210.137,1211.04 175.5,1214.5C 143.753,1212.09 126.086,1195.09 122.5,1163.5C 123.064,1143.85 132.064,1129.69 149.5,1121C 155.992,1117.89 162.658,1115.72 169.5,1114.5 Z M 187.5,1133.5 C 200.11,1131.84 209.277,1136.51 215,1147.5C 216.745,1156.68 214.411,1164.68 208,1171.5C 193.441,1184.61 176.441,1192.95 157,1196.5C 143.527,1196.18 135.36,1189.52 132.5,1176.5C 133.284,1170.6 135.451,1165.27 139,1160.5C 152.667,1146.92 168.834,1137.92 187.5,1133.5 Z"/></g>
<g><path style="opacity:1" fill="#264468" d="M 440.5,972.5 C 482.168,972.333 523.835,972.5 565.5,973C 576.853,973.779 588.187,974.779 599.5,976C 620.752,980.36 637.252,991.526 649,1009.5C 658.656,1028.64 658.989,1047.97 650,1067.5C 641.345,1081.42 629.179,1090.92 613.5,1096C 597.285,1101.43 580.619,1104.1 563.5,1104C 549.837,1104.5 536.171,1104.67 522.5,1104.5C 522.333,1131.17 522.5,1157.84 523,1184.5C 524.33,1191.33 528.163,1196.16 534.5,1199C 544.421,1200.85 554.421,1202.02 564.5,1202.5C 564.5,1205.83 564.5,1209.17 564.5,1212.5C 523.167,1212.5 481.833,1212.5 440.5,1212.5C 440.5,1209.17 440.5,1205.83 440.5,1202.5C 449.629,1202.22 458.629,1201.05 467.5,1199C 472,1197.17 475.167,1194 477,1189.5C 478.085,1184.56 478.752,1179.56 479,1174.5C 479.667,1123.5 479.667,1072.5 479,1021.5C 478.831,1013.12 478.164,1004.78 477,996.5C 474.859,991.692 471.359,988.192 466.5,986C 458.3,984.049 449.966,983.049 441.5,983C 440.544,979.606 440.211,976.106 440.5,972.5 Z M 592.5,987.5 C 609.101,991.601 619.601,1001.93 624,1018.5C 628.646,1037.66 626.646,1055.99 618,1073.5C 612.182,1081.82 604.349,1087.16 594.5,1089.5C 610.49,1076.84 617.823,1060.17 616.5,1039.5C 617.107,1017.91 609.107,1000.57 592.5,987.5 Z M 540.5,983.5 C 590.592,979.425 613.425,1002.42 609,1052.5C 606.599,1069.22 597.766,1081.06 582.5,1088C 575.057,1090.69 567.391,1092.36 559.5,1093C 547.171,1093.5 534.838,1093.67 522.5,1093.5C 522.053,1061.47 522.553,1029.47 524,997.5C 526.956,989.702 532.456,985.035 540.5,983.5 Z M 475.5,984.5 C 488.012,983.498 494.512,989.498 495,1002.5C 495.667,1064.5 495.667,1126.5 495,1188.5C 492.624,1198.78 486.124,1203.28 475.5,1202C 480.781,1198.62 483.948,1193.78 485,1187.5C 485.667,1126.83 485.667,1066.17 485,1005.5C 484.732,1000.35 483.732,995.35 482,990.5C 480.594,987.591 478.428,985.591 475.5,984.5 Z"/></g>
<g><path style="opacity:0.933" fill="#254367" d="M 286.5,1254.5 C 285.833,1254.5 285.5,1254.83 285.5,1255.5C 284.833,1255.5 284.5,1255.83 284.5,1256.5C 279.669,1261.16 274.669,1265.66 269.5,1270C 267.926,1270.7 266.593,1270.37 265.5,1269C 274.425,1249.78 270.592,1233.61 254,1220.5C 243.635,1226.2 233.801,1232.7 224.5,1240C 227.88,1245.72 232.713,1249.55 239,1251.5C 243.493,1250.39 247.993,1249.39 252.5,1248.5C 252.657,1249.87 252.49,1251.21 252,1252.5C 242.747,1258.54 233.58,1264.71 224.5,1271C 222.323,1272.2 219.989,1272.7 217.5,1272.5C 217.421,1271.07 217.754,1269.74 218.5,1268.5C 227.407,1260.69 227.74,1252.36 219.5,1243.5C 209.15,1250.01 199.15,1257.01 189.5,1264.5C 188.063,1266.02 187.396,1267.85 187.5,1270C 188.143,1273.78 189.476,1277.28 191.5,1280.5C 190.484,1284.13 188.65,1284.46 186,1281.5C 179.172,1269.01 171.172,1257.34 162,1246.5C 160.872,1244.65 160.372,1242.65 160.5,1240.5C 161.873,1240.34 163.207,1240.51 164.5,1241C 167.116,1245.14 170.783,1246.81 175.5,1246C 197.429,1233.4 218.262,1219.23 238,1203.5C 239.308,1201.87 240.142,1200.03 240.5,1198C 239.625,1194.79 238.291,1191.79 236.5,1189C 236.667,1187.5 237.5,1186.67 239,1186.5C 240.944,1187.44 242.611,1188.77 244,1190.5C 257.61,1211.11 271.61,1231.44 286,1251.5C 286.483,1252.45 286.649,1253.45 286.5,1254.5 Z"/></g>
<g><path style="opacity:0.955" fill="#254367" d="M 1409.5,1185.5 C 1411.56,1185.69 1413.56,1186.19 1415.5,1187C 1421,1190.59 1426.67,1193.92 1432.5,1197C 1433.55,1198.39 1433.72,1199.89 1433,1201.5C 1426.17,1201.31 1419.34,1201.81 1412.5,1203C 1410.5,1204 1408.5,1205 1406.5,1206C 1402.26,1210.48 1398.26,1215.15 1394.5,1220C 1415.46,1237.29 1437.79,1252.62 1461.5,1266C 1466.78,1265.85 1470.78,1263.35 1473.5,1258.5C 1475.05,1257.55 1476.71,1257.21 1478.5,1257.5C 1478.66,1258.87 1478.49,1260.21 1478,1261.5C 1468.17,1274.48 1458.84,1287.82 1450,1301.5C 1448.56,1303.16 1446.72,1303.82 1444.5,1303.5C 1444.34,1301.8 1444.51,1300.13 1445,1298.5C 1449.77,1293.32 1449.6,1288.32 1444.5,1283.5C 1424.57,1267.08 1403.41,1252.41 1381,1239.5C 1375.77,1245.8 1372.27,1252.97 1370.5,1261C 1372.31,1268.28 1374.31,1275.44 1376.5,1282.5C 1374.35,1282.63 1372.35,1282.13 1370.5,1281C 1365.05,1276.51 1359.88,1271.68 1355,1266.5C 1354.33,1265.5 1354.33,1264.5 1355,1263.5C 1374.58,1238.43 1392.75,1212.43 1409.5,1185.5 Z"/></g>
<g><path style="opacity:0.957" fill="#254367" d="M 286.5,1254.5 C 289.394,1255.88 291.894,1257.88 294,1260.5C 308.646,1277.98 323.479,1295.31 338.5,1312.5C 333.833,1318.5 329.167,1324.5 324.5,1330.5C 321.855,1332.09 320.188,1331.43 319.5,1328.5C 325.012,1315.57 323.179,1303.91 314,1293.5C 311.286,1290.45 308.286,1287.78 305,1285.5C 294.796,1291.87 285.63,1299.53 277.5,1308.5C 280.021,1311.85 283.021,1314.69 286.5,1317C 292.917,1317.56 299.251,1317.06 305.5,1315.5C 305.657,1316.87 305.49,1318.21 305,1319.5C 295.224,1326.28 286.391,1334.11 278.5,1343C 276.08,1343.91 274.747,1343.08 274.5,1340.5C 276.198,1337.29 277.698,1333.95 279,1330.5C 279.478,1323.45 277.145,1317.45 272,1312.5C 262.703,1320.13 253.703,1328.13 245,1336.5C 244.088,1340.45 244.755,1344.12 247,1347.5C 254.845,1357.92 265.178,1364.25 278,1366.5C 282.125,1365.51 286.291,1364.84 290.5,1364.5C 290.822,1366.72 290.155,1368.56 288.5,1370C 281.479,1374.01 274.479,1377.67 267.5,1381C 249.282,1360.29 231.282,1339.45 213.5,1318.5C 213.434,1316.73 214.268,1315.73 216,1315.5C 218.756,1318.08 221.922,1320.08 225.5,1321.5C 231.143,1319.35 236.143,1316.18 240.5,1312C 256.556,1298.4 272.056,1284.23 287,1269.5C 287.638,1268.39 288.138,1267.22 288.5,1266C 287.363,1262.71 286.03,1259.55 284.5,1256.5C 285.167,1256.5 285.5,1256.17 285.5,1255.5C 286.167,1255.5 286.5,1255.17 286.5,1254.5 Z"/></g>
<g><path style="opacity:0.977" fill="#254367" d="M 1333.5,1286.5 C 1334.83,1286.5 1336.17,1286.5 1337.5,1286.5C 1336.53,1291.27 1334.87,1295.77 1332.5,1300C 1332.86,1302.03 1333.69,1303.87 1335,1305.5C 1350.87,1321.03 1367.03,1336.2 1383.5,1351C 1386.39,1353.56 1389.56,1355.72 1393,1357.5C 1411.57,1344.48 1415.74,1327.65 1405.5,1307C 1405.29,1304.54 1406.29,1303.54 1408.5,1304C 1415.75,1311.25 1422.25,1319.08 1428,1327.5C 1428.62,1329.46 1428.12,1331.13 1426.5,1332.5C 1408.63,1350.54 1391.63,1369.37 1375.5,1389C 1373.36,1389.88 1371.69,1389.38 1370.5,1387.5C 1372.3,1384.06 1373.97,1380.56 1375.5,1377C 1374.91,1374.21 1373.74,1371.71 1372,1369.5C 1356.8,1354.63 1341.3,1340.13 1325.5,1326C 1322.16,1323.49 1318.49,1321.65 1314.5,1320.5C 1305.86,1322.61 1302.36,1327.95 1304,1336.5C 1313.52,1351.03 1324.19,1364.69 1336,1377.5C 1339.78,1382.72 1342.78,1388.39 1345,1394.5C 1346.14,1401.82 1345.14,1408.82 1342,1415.5C 1332.1,1430.91 1318.27,1440.58 1300.5,1444.5C 1291.1,1444.05 1283.6,1440.05 1278,1432.5C 1266.25,1417.41 1253.75,1402.91 1240.5,1389C 1239.13,1388.13 1237.63,1387.63 1236,1387.5C 1232.72,1389.29 1229.22,1390.29 1225.5,1390.5C 1225.25,1388.17 1225.91,1386.17 1227.5,1384.5C 1238.23,1376.94 1248.23,1368.44 1257.5,1359C 1263.96,1357.75 1264.79,1359.58 1260,1364.5C 1257.83,1369.5 1258.5,1374.17 1262,1378.5C 1272.67,1393.85 1284.84,1408.01 1298.5,1421C 1308.75,1426.83 1318.42,1425.83 1327.5,1418C 1337.73,1408.83 1339.23,1398.33 1332,1386.5C 1322.3,1372.46 1311.47,1359.29 1299.5,1347C 1293.78,1341.61 1287.62,1341.11 1281,1345.5C 1279.5,1345.33 1278.67,1344.5 1278.5,1343C 1298.62,1325.93 1316.96,1307.1 1333.5,1286.5 Z"/></g>
<g><path style="opacity:0.996" fill="#254367" d="M 342.5,1329.5 C 356.258,1328.03 367.425,1332.7 376,1343.5C 378.833,1347.83 381.667,1352.17 384.5,1356.5C 387.483,1354.79 389.816,1355.29 391.5,1358C 386.774,1365.96 381.441,1373.46 375.5,1380.5C 373.728,1379.73 372.728,1378.4 372.5,1376.5C 376.055,1365.56 374.888,1355.23 369,1345.5C 360.451,1337.16 352.451,1337.49 345,1346.5C 343.155,1350.14 343.155,1353.81 345,1357.5C 350.962,1367.43 355.962,1377.77 360,1388.5C 362.737,1406.53 355.571,1418.69 338.5,1425C 328.105,1427.42 318.439,1425.75 309.5,1420C 301.369,1412.88 295.202,1404.38 291,1394.5C 288.435,1396.18 285.602,1396.85 282.5,1396.5C 282.372,1394.35 282.872,1392.35 284,1390.5C 290.049,1383.45 295.716,1376.12 301,1368.5C 302.356,1367.62 303.856,1367.29 305.5,1367.5C 303.97,1375.44 302.637,1383.44 301.5,1391.5C 301.77,1405.07 308.436,1413.41 321.5,1416.5C 332.808,1415.04 337.974,1408.7 337,1397.5C 331.971,1386.12 326.971,1374.78 322,1363.5C 319.957,1346.56 326.79,1335.22 342.5,1329.5 Z"/></g>
<g><path style="opacity:0.97" fill="#254367" d="M 400.5,1376.5 C 418.357,1375.93 431.69,1383.43 440.5,1399C 443.119,1398.92 445.786,1398.75 448.5,1398.5C 448.66,1400.2 448.494,1401.87 448,1403.5C 444.333,1410.17 440.667,1416.83 437,1423.5C 434.218,1425.01 432.385,1424.18 431.5,1421C 434.733,1409.39 432.399,1399.06 424.5,1390C 416.032,1383.39 408.532,1384.22 402,1392.5C 400,1396.17 400,1399.83 402,1403.5C 406.274,1410.77 410.941,1417.77 416,1424.5C 427.387,1443.77 423.887,1459.61 405.5,1472C 387.055,1478.63 371.888,1474.13 360,1458.5C 357.667,1454.83 355.333,1451.17 353,1447.5C 350.508,1449.5 347.675,1450.5 344.5,1450.5C 344.259,1447.21 345.092,1444.21 347,1441.5C 351.584,1434.67 355.917,1427.67 360,1420.5C 362.48,1418.91 364.313,1419.41 365.5,1422C 360.833,1434.3 361.666,1446.14 368,1457.5C 377.129,1467.31 386.796,1467.98 397,1459.5C 399.905,1454.35 400.238,1449.02 398,1443.5C 393.833,1435.83 389.166,1428.49 384,1421.5C 375.73,1406.29 377.897,1392.79 390.5,1381C 393.893,1379.38 397.226,1377.88 400.5,1376.5 Z"/></g>
<g><path style="opacity:0.989" fill="#254367" d="M 1214.5,1390.5 C 1216.9,1390.39 1218.74,1391.39 1220,1393.5C 1224.83,1399.67 1229.67,1405.83 1234.5,1412C 1233.6,1413.24 1232.43,1414.07 1231,1414.5C 1221.4,1407.61 1210.9,1405.78 1199.5,1409C 1190.49,1413.84 1187.83,1421.01 1191.5,1430.5C 1194.5,1434 1198.33,1435.67 1203,1435.5C 1211.54,1433.91 1220.04,1432.07 1228.5,1430C 1248.35,1426.5 1261.19,1434.34 1267,1453.5C 1269.33,1470.68 1262.83,1483.18 1247.5,1491C 1240.48,1494.09 1233.14,1495.92 1225.5,1496.5C 1226.16,1499.46 1226.49,1502.46 1226.5,1505.5C 1224.71,1505.79 1223.05,1505.45 1221.5,1504.5C 1215.14,1496.64 1208.98,1488.64 1203,1480.5C 1202.39,1476.91 1203.89,1475.75 1207.5,1477C 1214.07,1481.95 1221.4,1485.28 1229.5,1487C 1243.92,1488.73 1252.59,1482.56 1255.5,1468.5C 1253.97,1459.13 1248.47,1454.13 1239,1453.5C 1227.52,1455.6 1216.02,1457.6 1204.5,1459.5C 1184.06,1456.56 1175.22,1444.9 1178,1424.5C 1180.97,1415.54 1186.47,1408.71 1194.5,1404C 1200.36,1401.6 1206.36,1399.6 1212.5,1398C 1213.22,1395.51 1213.89,1393.01 1214.5,1390.5 Z"/></g>
<g><path style="opacity:0.165" fill="#b3c1d7" d="M 823.5,1446.5 C 824.167,1447.5 824.833,1448.5 825.5,1449.5C 825.607,1451.38 825.107,1451.71 824,1450.5C 823.51,1449.21 823.343,1447.87 823.5,1446.5 Z"/></g>
<g><path style="opacity:0.972" fill="#254367" d="M 458.5,1409.5 C 460.655,1409.37 462.655,1409.87 464.5,1411C 476.027,1418.59 487.694,1425.93 499.5,1433C 499.138,1434.89 497.971,1435.72 496,1435.5C 492.979,1433.96 489.812,1433.46 486.5,1434C 477.89,1444.05 470.39,1454.88 464,1466.5C 456.43,1478.97 449.93,1491.97 444.5,1505.5C 445.805,1508.64 447.971,1510.97 451,1512.5C 451.335,1517.08 449.502,1518.25 445.5,1516C 434.662,1507.74 422.995,1500.74 410.5,1495C 409.62,1493.64 409.286,1492.14 409.5,1490.5C 412.959,1490.53 416.292,1491.2 419.5,1492.5C 422.77,1490.73 425.603,1488.4 428,1485.5C 441.729,1464.71 453.896,1443.04 464.5,1420.5C 463.195,1417.36 461.029,1415.03 458,1413.5C 457.421,1412.07 457.588,1410.74 458.5,1409.5 Z"/></g>
<g><path style="opacity:0.944" fill="#254367" d="M 523.5,1449.5 C 541.636,1449.49 556.803,1456.15 569,1469.5C 576.904,1481.35 579.571,1494.35 577,1508.5C 572.137,1528.36 559.971,1541.53 540.5,1548C 517.6,1553.95 498.767,1547.79 484,1529.5C 470.002,1503.15 474.169,1479.98 496.5,1460C 504.739,1454.21 513.739,1450.71 523.5,1449.5 Z M 531.5,1458.5 C 548.067,1457.73 556.733,1465.73 557.5,1482.5C 555.005,1503.19 546.672,1521.03 532.5,1536C 523.535,1543.5 514.202,1544.17 504.5,1538C 496.742,1529.12 494.575,1518.96 498,1507.5C 502.037,1490 510.537,1475.16 523.5,1463C 526.191,1461.4 528.858,1459.9 531.5,1458.5 Z"/></g>
<g><path style="opacity:0.964" fill="#254367" d="M 1165.5,1424.5 C 1167.17,1424.5 1168.83,1424.5 1170.5,1424.5C 1170.66,1426.2 1170.49,1427.87 1170,1429.5C 1162.14,1434.06 1160.14,1440.4 1164,1448.5C 1175.89,1471.87 1187.05,1495.54 1197.5,1519.5C 1197.17,1521.17 1196.17,1522.17 1194.5,1522.5C 1166.25,1510.93 1138.25,1499.09 1110.5,1487C 1118.03,1503.23 1126.2,1519.06 1135,1534.5C 1140.35,1538.98 1146.18,1539.65 1152.5,1536.5C 1154.66,1537.97 1154.99,1539.8 1153.5,1542C 1142.49,1545.67 1132.16,1550.67 1122.5,1557C 1118.89,1558.25 1117.39,1557.09 1118,1553.5C 1120.33,1551.83 1122.67,1550.17 1125,1548.5C 1126.11,1546.61 1126.95,1544.61 1127.5,1542.5C 1120.4,1523.28 1111.9,1504.62 1102,1486.5C 1096.12,1477.06 1087.79,1473.06 1077,1474.5C 1073.32,1473.35 1072.82,1471.51 1075.5,1469C 1083.05,1465.21 1090.71,1461.71 1098.5,1458.5C 1124.05,1469.44 1149.71,1480.11 1175.5,1490.5C 1169.7,1476.88 1163.2,1463.22 1156,1449.5C 1154.13,1447.29 1151.96,1445.46 1149.5,1444C 1144.49,1443.61 1139.49,1443.78 1134.5,1444.5C 1134.29,1442.86 1134.62,1441.36 1135.5,1440C 1146.28,1436.11 1156.28,1430.94 1165.5,1424.5 Z"/></g>
<g><path style="opacity:0.963" fill="#254367" d="M 589.5,1474.5 C 598.948,1476.82 608.115,1479.82 617,1483.5C 627.927,1508.69 639.927,1533.35 653,1557.5C 657.781,1542.16 661.947,1526.66 665.5,1511C 663.802,1504.47 659.802,1499.97 653.5,1497.5C 652.674,1496.55 652.508,1495.55 653,1494.5C 655.064,1493.41 657.231,1493.24 659.5,1494C 669.861,1497.71 680.361,1500.88 691,1503.5C 691.684,1504.78 691.517,1505.95 690.5,1507C 682.975,1505.85 677.141,1508.35 673,1514.5C 665.768,1541.19 657.935,1567.69 649.5,1594C 647.888,1594.72 646.388,1594.55 645,1593.5C 631.605,1566.71 618.771,1539.71 606.5,1512.5C 601.055,1529.28 596.389,1546.28 592.5,1563.5C 593.036,1565.94 593.869,1568.28 595,1570.5C 598.243,1573.42 601.743,1575.92 605.5,1578C 604.845,1579.49 603.845,1580.65 602.5,1581.5C 590.575,1576.91 578.409,1573.25 566,1570.5C 565.316,1569.22 565.483,1568.05 566.5,1567C 574.751,1569.55 580.918,1567.05 585,1559.5C 590.311,1541.59 595.311,1523.59 600,1505.5C 601.805,1494.45 598.138,1485.78 589,1479.5C 588.36,1477.73 588.527,1476.07 589.5,1474.5 Z"/></g>
<g><path style="opacity:0.97" fill="#254367" d="M 974.5,1498.5 C 976.911,1498.14 978.411,1499.14 979,1501.5C 981.655,1511.77 983.655,1522.1 985,1532.5C 983.951,1533.52 982.784,1533.68 981.5,1533C 975.719,1524.1 968.386,1516.76 959.5,1511C 942.841,1506.66 932.341,1512.82 928,1529.5C 925.336,1546.85 928.336,1563.18 937,1578.5C 946.856,1593.23 959.689,1596.73 975.5,1589C 981.524,1583.48 986.19,1576.98 989.5,1569.5C 991.045,1568.55 992.712,1568.21 994.5,1568.5C 989.211,1591.93 974.378,1603.93 950,1604.5C 924.075,1601.58 908.741,1587.24 904,1561.5C 900.873,1540.53 907.373,1523.36 923.5,1510C 938.278,1501.52 953.612,1500.35 969.5,1506.5C 971.678,1504.14 973.345,1501.47 974.5,1498.5 Z"/></g>
<g><path style="opacity:0.915" fill="#254367" d="M 1039.5,1479.5 C 1072.76,1479.93 1090.76,1496.76 1093.5,1530C 1089.3,1567.22 1068.63,1584.22 1031.5,1581C 1015.27,1577.47 1004.1,1567.97 998,1552.5C 988.709,1526.49 994.876,1504.99 1016.5,1488C 1023.89,1484.04 1031.55,1481.21 1039.5,1479.5 Z M 1032.5,1487.5 C 1040.48,1487.32 1047.31,1489.99 1053,1495.5C 1066.88,1513.48 1072.88,1533.81 1071,1556.5C 1064.15,1574.34 1052.65,1578.17 1036.5,1568C 1021.58,1550.65 1014.75,1530.48 1016,1507.5C 1017.74,1497.61 1023.24,1490.94 1032.5,1487.5 Z"/></g>
<g><path style="opacity:0.975" fill="#254367" d="M 774.5,1513.5 C 791.158,1514.19 807.824,1514.52 824.5,1514.5C 824.714,1516.14 824.38,1517.64 823.5,1519C 819.695,1519.53 816.029,1520.53 812.5,1522C 811.54,1523.42 810.707,1524.92 810,1526.5C 808.834,1548.14 808,1569.81 807.5,1591.5C 807.545,1595.89 808.045,1600.22 809,1604.5C 811.559,1606.69 814.559,1607.69 818,1607.5C 828.319,1607.89 837.153,1604.55 844.5,1597.5C 848.363,1592.14 852.029,1586.64 855.5,1581C 856.793,1580.51 858.127,1580.34 859.5,1580.5C 858.48,1591.6 856.813,1602.6 854.5,1613.5C 826.929,1613.14 799.429,1612.47 772,1611.5C 771.316,1610.22 771.483,1609.05 772.5,1608C 778.914,1608.05 783.414,1605.22 786,1599.5C 787.116,1579.85 787.95,1560.18 788.5,1540.5C 788.728,1534.2 787.561,1528.2 785,1522.5C 781.901,1520.18 778.401,1518.68 774.5,1518C 773.587,1516.59 773.587,1515.09 774.5,1513.5 Z"/></g>
<g><path style="opacity:0.972" fill="#254367" d="M 726.5,1504.5 C 730.006,1504.56 732.172,1506.23 733,1509.5C 740.668,1540.17 748.335,1570.84 756,1601.5C 759.136,1604.96 762.636,1607.79 766.5,1610C 765.771,1611.99 764.271,1612.83 762,1612.5C 747.994,1609.3 733.827,1607.3 719.5,1606.5C 719.286,1604.86 719.62,1603.36 720.5,1602C 722.833,1601.67 725.167,1601.33 727.5,1601C 729.333,1600.5 730.5,1599.33 731,1597.5C 731.283,1588.36 729.783,1579.53 726.5,1571C 718.333,1569.83 710.167,1568.67 702,1567.5C 700.833,1567.83 699.667,1568.17 698.5,1568.5C 694.564,1575.21 691.564,1582.38 689.5,1590C 691.398,1594.88 694.898,1598.04 700,1599.5C 700.684,1600.78 700.517,1601.95 699.5,1603C 688.943,1601.24 678.276,1599.91 667.5,1599C 666.62,1597.64 666.286,1596.14 666.5,1594.5C 673.248,1594.21 678.415,1591.21 682,1585.5C 696.338,1558.15 711.171,1531.15 726.5,1504.5 Z M 717.5,1532.5 C 720.455,1542.31 723.121,1552.31 725.5,1562.5C 717.873,1562.59 710.207,1561.76 702.5,1560C 707.639,1550.89 712.639,1541.72 717.5,1532.5 Z"/></g>
</svg>
